 <svg version="1.0" xmlns="http://www.w3.org/2000/svg" width="700.000000pt" height="318.000000pt" viewBox="0 0 700.000000 318.000000" preserveAspectRatio="xMidYMid meet">
<metadata>
Created by potrace 1.12, written by Peter Selinger 2001-2015
</metadata>
<g transform="translate(0.000000,318.000000) scale(0.100000,-0.100000)" fill="#000000" stroke="none">
<path d="M572 2223 c-13 -3 -26 -12 -29 -21 -4 -9 -112 -122 -240 -250 -129
-129 -238 -245 -243 -258 -5 -13 -21 -29 -35 -36 -23 -10 -25 -17 -25 -70 0
-41 4 -58 13 -58 7 0 55 -47 107 -105 52 -58 100 -107 106 -109 13 -5 20 -1
68 51 29 31 36 46 29 55 -6 7 -13 24 -15 38 -3 14 -13 52 -22 85 -16 59 -16
61 9 135 31 92 84 156 168 200 49 25 68 30 130 30 59 -1 79 -5 112 -25 50 -31
72 -31 99 -2 11 12 31 30 44 39 23 15 23 16 5 45 -10 16 -62 71 -117 123 -54
52 -102 105 -107 118 -8 22 -13 23 -57 15z"></path>
<path d="M1805 2003 c-11 -3 -29 -13 -40 -23 -11 -10 -35 -21 -53 -25 -23 -5
-40 -18 -56 -44 -13 -20 -31 -42 -40 -50 -12 -10 -16 -30 -16 -80 0 -65 1 -67
50 -123 43 -49 57 -58 95 -64 25 -3 55 -14 68 -24 12 -10 47 -21 77 -25 128
-17 182 -115 106 -191 -34 -34 -35 -34 -124 -34 -82 0 -93 2 -120 25 -17 14
-37 25 -45 25 -8 0 -20 6 -26 14 -12 14 -57 11 -78 -7 -36 -27 -1 -91 54 -102
21 -3 45 -16 54 -27 15 -19 27 -21 152 -21 128 0 137 1 165 24 17 13 42 32 55
41 32 23 52 101 44 178 -8 73 -22 110 -43 110 -9 0 -32 14 -51 30 -25 22 -44
30 -73 30 -22 0 -63 11 -92 24 -29 13 -64 26 -78 28 -15 2 -35 19 -53 43 -26
39 -27 43 -15 80 17 51 73 85 141 85 46 0 76 -9 154 -47 29 -14 34 -14 64 3
42 25 44 33 16 67 -17 21 -35 30 -81 37 -32 5 -66 16 -75 24 -17 15 -104 27
-136 19z"></path>
<path d="M2615 1990 c-22 -12 -62 -25 -90 -31 -27 -5 -61 -20 -75 -33 -14 -13
-33 -26 -42 -29 -10 -4 -18 -13 -18 -21 0 -7 -11 -21 -25 -30 -14 -9 -25 -25
-25 -35 0 -11 -12 -34 -26 -51 -26 -30 -27 -35 -26 -161 0 -124 1 -130 26
-160 14 -17 26 -35 26 -39 0 -21 96 -116 128 -126 18 -7 39 -20 46 -30 11 -15
31 -17 150 -17 127 1 139 2 158 22 11 12 33 25 50 28 19 4 33 14 36 25 2 11
15 24 28 29 30 11 31 29 3 36 -11 3 -25 16 -30 29 -11 30 -31 31 -44 2 -6 -13
-18 -24 -28 -26 -11 -2 -35 -15 -55 -29 -34 -22 -45 -24 -122 -21 -71 3 -91 8
-121 29 -54 37 -109 94 -109 111 0 9 -6 21 -14 27 -39 33 -43 177 -5 225 11
13 19 32 19 40 0 26 81 95 125 107 22 6 48 15 57 20 27 14 113 11 150 -5 18
-8 46 -17 61 -21 17 -3 31 -15 37 -30 14 -36 42 -31 79 15 31 39 34 60 6 60
-7 0 -27 11 -43 25 -16 13 -50 29 -77 35 -26 6 -59 17 -74 24 -51 27 -93 28
-136 6z"></path>
<path d="M3605 1968 c-16 -5 -129 -8 -249 -7 l-219 3 -1 -369 -1 -369 260 0
260 -1 3 39 c2 21 -2 44 -8 50 -7 7 -67 10 -189 8 -221 -4 -223 -2 -229 107
-3 55 0 77 12 96 l17 26 162 -3 c89 -1 168 1 175 5 6 5 12 23 12 42 0 19 -6
37 -12 42 -7 4 -81 6 -163 4 -138 -3 -153 -1 -175 17 -21 17 -25 30 -28 93 -6
117 -12 114 225 114 l198 0 3 40 c4 54 -14 75 -53 63z"></path>
<path d="M3880 1954 c-9 -10 -12 -98 -11 -344 2 -212 -2 -336 -8 -349 -15 -28
8 -43 61 -39 l43 3 2 248 c0 136 4 254 7 263 9 24 49 13 64 -18 7 -16 17 -28
22 -28 5 0 17 -15 26 -32 9 -18 25 -42 35 -53 19 -20 100 -122 154 -195 17
-22 57 -74 90 -115 l60 -75 60 3 60 3 2 362 c2 405 6 384 -69 375 -43 -6 -66
-26 -50 -45 11 -14 17 -401 6 -442 -5 -22 -12 -26 -40 -26 -34 0 -50 17 -100
102 -6 10 -19 26 -28 36 -38 40 -86 105 -86 117 0 7 -11 20 -25 29 -14 9 -25
23 -25 31 0 8 -11 22 -25 31 -14 9 -25 22 -25 28 0 7 -13 25 -30 41 -16 16
-30 34 -30 41 0 20 -60 58 -96 60 -19 2 -37 -3 -44 -12z"></path>
<path d="M4778 1613 c-1 -194 -2 -360 -2 -369 -1 -15 25 -17 259 -17 l260 0 9
38 c14 60 5 62 -206 58 -143 -4 -187 -1 -201 9 -28 21 -36 157 -13 193 l18 27
171 -3 172 -3 0 49 0 50 -165 -3 c-206 -4 -202 -6 -205 107 -3 122 -14 116
222 116 l198 0 0 48 0 49 -258 1 -257 2 -2 -352z"></path>
<path d="M5532 1959 c-44 -9 -60 -25 -44 -41 9 -9 12 -94 12 -320 0 -264 -2
-312 -16 -333 -14 -22 -14 -24 5 -34 33 -18 109 -14 119 7 4 9 6 61 3 116 -8
129 -3 136 89 136 63 0 72 -3 105 -31 19 -17 35 -37 35 -43 0 -7 9 -21 21 -32
12 -10 28 -32 36 -48 8 -16 24 -38 34 -49 10 -12 19 -28 19 -38 0 -13 13 -18
65 -24 35 -3 69 -4 75 0 18 11 11 33 -19 55 -17 11 -33 31 -37 43 -4 12 -16
32 -28 44 -88 90 -89 143 -2 184 18 9 33 25 37 43 5 16 18 39 30 52 20 21 21
31 16 97 -6 81 -30 129 -93 180 -28 23 -46 29 -101 32 -140 9 -329 12 -361 4z
m198 -89 c81 3 98 2 148 -5 53 -8 54 -9 80 -61 24 -50 25 -57 14 -99 -28 -106
-62 -125 -225 -125 -91 0 -117 3 -127 15 -9 11 -13 53 -13 137 0 107 3 123 19
135 11 9 29 12 44 8 14 -4 41 -6 60 -5z"></path>
<path d="M6529 1953 c-36 -24 -49 -44 -49 -74 0 -14 -11 -43 -25 -64 -14 -20
-29 -51 -32 -69 -3 -17 -17 -44 -30 -59 -12 -16 -23 -41 -23 -56 0 -16 -11
-44 -24 -63 -13 -19 -26 -51 -30 -70 -4 -20 -15 -47 -25 -59 -10 -13 -22 -39
-26 -57 -3 -18 -17 -45 -31 -61 -13 -16 -25 -44 -26 -62 -3 -34 -3 -34 45 -37
42 -3 48 0 56 20 5 13 16 30 25 37 9 7 16 26 16 41 0 15 8 38 19 51 16 21 25
22 101 20 46 -1 87 -4 91 -7 5 -3 9 -2 9 3 0 4 45 8 99 7 94 0 131 -10 131
-35 0 -4 11 -24 24 -44 14 -20 22 -43 19 -51 -3 -8 0 -21 7 -29 27 -32 129 -6
104 26 -6 8 -14 27 -18 43 -4 16 -16 41 -27 54 -10 14 -19 36 -19 51 0 14 -14
46 -30 70 -17 24 -30 55 -30 69 0 13 -11 37 -25 54 -14 16 -25 40 -25 53 0 13
-11 41 -25 61 -14 20 -25 46 -25 57 0 12 -12 38 -26 58 -14 21 -28 56 -31 79
-6 45 -7 46 -74 54 -33 4 -53 1 -70 -11z m100 -184 c6 -18 11 -39 11 -47 0 -9
7 -23 15 -32 14 -16 65 -142 65 -161 0 -4 -7 -15 -16 -23 -12 -13 -38 -16
-119 -16 -112 0 -135 9 -135 53 1 30 25 95 43 115 8 9 18 34 21 56 15 79 93
116 115 55z"></path>
<path d="M891 1824 c-47 -48 -47 -62 -7 -119 17 -25 21 -44 20 -110 0 -71 -4
-86 -32 -135 -42 -75 -97 -126 -163 -152 -85 -33 -143 -34 -234 -3 l-78 27
-21 -25 c-11 -14 -31 -30 -43 -36 -13 -7 -23 -18 -23 -25 0 -8 54 -68 120
-134 66 -65 120 -124 120 -131 0 -14 48 -34 67 -27 7 3 13 13 13 22 0 18 115
137 143 147 9 3 17 11 17 18 0 14 280 293 303 302 9 3 17 13 17 21 0 8 12 23
26 33 24 18 26 25 26 95 l0 75 -93 93 c-52 51 -103 96 -114 100 -17 6 -30 -1
-64 -36z"></path>
<path d="M481 1792 c-14 -4 -33 -23 -44 -42 -11 -19 -28 -41 -39 -49 -19 -13
-20 -22 -16 -112 5 -97 5 -99 43 -141 21 -24 44 -46 50 -50 6 -4 57 -8 113
-10 100 -2 102 -2 133 27 36 34 89 144 89 184 0 14 -7 37 -16 49 -10 15 -13
32 -9 52 5 23 2 31 -17 40 -13 7 -31 22 -40 34 -15 19 -28 21 -120 23 -57 1
-114 -1 -127 -5z m151 -98 c33 -9 68 -63 68 -104 0 -33 -6 -44 -42 -75 -36
-31 -48 -36 -77 -31 -72 11 -124 104 -84 150 11 11 27 34 37 49 18 29 29 30
98 11z"></path>
</g>
</svg>